# xmcd
#
# Track frame offsets: 
#        150
#        26937
#        46685
#        73267
#        93117
#        110992
#        127514
#        154172
#        172051
#        194446
#        215619
#        235660
#        249809
#
# Disc length: 3566 seconds
#
# Revision: 3
# Processed by: cddbd v1.5.2PL0 Copyright (c) Steve Scherf et al.
# Submitted via: ExactAudioCopyFreeDBPlugin 1.0
#
DISCID=af0dec0d
DTITLE=David Stewart - The Blackbird Diaries
DYEAR=2011
DGENRE=Pop
TTITLE0=So long ago
TTITLE1=Beast called Fame
TTITLE2=Magic in the blues
TTITLE3=David Stewart - Martina McBride - All messed up
TTITLE4=Stevie baby
TTITLE5=David Stewart - Stevie Nicks - Cheaper than free
TTITLE6=The gypsy girl and me
TTITLE7=David Stewart - The Secret Sisters - One way ticket to the moon
TTITLE8=David Stewart - Colbie Caillat - Bulletproof vest
TTITLE9=Worth the waiting for
TTITLE10=The well
TTITLE11=David Stewart - The Secret Sisters - Country wine
TTITLE12=Can't get you out of my head
EXTD=
EXTT0=
EXTT1=
EXTT2=
EXTT3=
EXTT4=
EXTT5=
EXTT6=
EXTT7=
EXTT8=
EXTT9=
EXTT10=
EXTT11=
EXTT12=
PLAYORDER=
